<svg width="106" height="54" viewBox="0 0 106 54" fill="none" xmlns="http://www.w3.org/2000/svg">
<g clip-path="url(#clip0_2238_157291)">
<path d="M101.473 29.9186H99.8425V26.3359H97.7656V39.9294H98.316C99.1572 39.9294 99.8425 39.244 99.8425 38.4029V31.3725H101.473V29.9186Z" fill="#FF7A00"/>
<path d="M45.2474 33.3793L48.965 28.4777L52.2258 32.777C52.5477 33.182 52.8904 33.3793 53.3889 33.3793H55.2685L50.9174 27.782H54.7597V26.3281H43.212V27.782H47.0024L42.7031 33.3793H45.2474Z" fill="#FF7A00"/>
<path d="M42.0625 36.1413H47.9402V40.6067H48.4906C49.3317 40.6067 50.0171 39.9213 50.0171 39.0802V36.1413H55.9156V34.6875H42.0625V36.1413Z" fill="#FF7A00"/>
<path d="M91.6664 26.3359C91.3445 26.3359 91.0226 26.554 90.8149 26.9279L87.3672 35.9936H89.5064L92.2791 28.6413L94.7403 35.4017C94.896 35.7859 95.2595 35.9936 95.5918 36.004H97.1391L93.3591 26.3463H91.656L91.6664 26.3359Z" fill="#FF7A00"/>
<path d="M64.5006 32.8263C64.698 33.2106 65.0199 33.4182 65.3522 33.4286H66.8995L63.1195 26.3359H61.4164C61.0945 26.3359 60.7726 26.554 60.5649 26.9279L57.1172 33.4182H59.2564L62.0291 28.2052L64.4903 32.8263H64.5006Z" fill="#FF7A00"/>
<path d="M59.3828 34.7734V36.2273H67.867V40.3707H68.4174C69.2586 40.3707 69.944 39.6854 69.944 38.8442V34.7734H59.3828Z" fill="#FF7A00"/>
<path d="M69.9441 26.3359H67.8672V34.0932H69.9441V26.3359Z" fill="#FF7A00"/>
<path d="M83.3516 39.9216H83.902C84.7431 39.9216 85.4285 39.2362 85.4285 38.395V26.3281H83.3516V39.9216Z" fill="#FF7A00"/>
<path d="M78.8277 33.9703C80.4996 33.5861 81.6419 32.3711 81.6419 30.938C81.6419 29.9515 81.1019 29.0688 80.2192 28.4873H82.0781V27.0334H78.8173V26.0469H76.595V27.0334H73.2615V28.4873H75.1204C74.2377 29.0688 73.6977 29.9515 73.6977 30.938C73.6977 32.3919 74.8711 33.6173 76.5846 33.9911V34.7803H72.7734V36.2342H82.7011V34.7803H78.8173V33.9807L78.8277 33.9703ZM75.8265 30.8965C75.8265 29.8892 76.5742 29.0584 77.6854 29.0584C78.7965 29.0584 79.5338 29.8788 79.5338 30.8965C79.5338 31.9142 78.7861 32.7346 77.6854 32.7346C76.5846 32.7346 75.8265 31.9142 75.8265 30.8965Z" fill="#FF7A00"/>
<path d="M7.56772 29.554C6.13464 28.8894 4.96118 28.339 4.96118 27.2486C4.96118 26.4075 5.62579 25.8052 6.94464 25.8052C7.43272 25.8052 7.82733 25.8675 8.24272 25.9402C8.46079 25.9817 8.68926 26.0129 8.87618 26.0129C10.0289 26.0129 10.6831 25.3275 11.1193 24.019L11.2958 23.4894C11.1089 23.4167 9.22925 22.5859 6.7681 22.5859C2.8531 22.5859 0.786562 25.099 0.786562 27.6952C0.786562 29.014 1.20195 29.959 1.83541 30.7067C2.66618 31.6725 3.85002 32.3059 4.95079 32.8459C6.56041 33.6352 8.01425 34.2167 8.01425 35.3902C8.01425 36.4286 6.94464 37.0206 5.50118 37.0206C3.53849 37.0206 1.81464 35.899 1.59656 35.7536L-0.0234375 38.7859C0.267332 38.9521 2.34425 40.2709 5.77118 40.2709C9.42656 40.2709 12.1889 38.1732 12.1889 34.954C12.1889 31.7348 9.62387 30.5613 7.54695 29.554H7.56772Z" fill="#EA002C"/>
<path d="M21.8601 31.0583L28.4855 22.9375H23.7605L18.4851 29.9471H18.402V22.9375H14.5078V40.1448H14.7363C16.4186 40.1448 18.4228 39.366 18.4228 36.5621V32.616H18.5059L23.8955 39.9371H28.849L21.8705 31.0687L21.8601 31.0583Z" fill="#EA002C"/>
<path d="M28.7038 4.50781C27.333 4.76743 25.2976 6.01358 25.308 8.20474C25.308 10.1986 26.9488 11.4136 26.9488 14.0305C26.9488 15.9932 25.8688 17.3224 24.6953 18.0597C25.173 18.0182 25.6922 17.9974 26.2634 17.987C27.4576 17.987 28.1845 18.1013 28.2261 18.1117L34.3738 10.5724C32.6707 8.01781 30.6768 6.03435 28.7038 4.5182V4.50781Z" fill="#EA002C"/>
<path d="M33.8586 24.8569C34.6375 23.6523 34.7309 21.7311 34.7932 19.7788C34.8659 17.9511 35.2502 16.5803 37.6802 16.57C38.2202 16.57 38.7394 16.6426 39.6636 16.6426C43.2359 16.6219 45.5621 15.3965 47.0263 14.5865C44.0667 12.6965 39.7363 10.765 34.3675 10.5469C34.0144 11.5334 31.2936 19.0934 31.0859 19.7061C31.1171 19.7373 31.5948 20.2773 32.1867 21.3157C33.059 22.7488 33.5367 23.9638 33.8482 24.8465L33.8586 24.8569Z" fill="#EA002C"/>
<path d="M20.8831 18.6923C20.5716 18.6923 20.4158 18.4846 20.3743 18.1315C20.3327 17.7785 18.7958 3.71769 18.5674 1.58885C18.5362 1.27731 18.4531 0.706154 18.4531 0.498462C18.4635 0.166154 18.6712 0 18.9204 0C19.6474 0 23.6143 0.924231 27.8304 3.87346C26.6154 4.21615 24.4243 5.48308 24.4347 8.08962C24.4347 10.4054 26.0962 11.6723 26.1066 13.9985C26.1274 17.7785 21.7866 18.6819 20.8831 18.6923Z" fill="#FF7A00"/>
<path d="M34.2109 25.8705C34.2836 26.047 34.3356 26.1924 34.4082 26.2963C34.5017 26.4624 34.6263 26.5351 34.7821 26.5351C34.8859 26.5351 35.0002 26.504 35.1352 26.4417C35.4571 26.2859 48.2925 20.3147 50.224 19.4217C50.5044 19.2867 51.034 19.0478 51.2106 18.944C51.3975 18.8401 51.4702 18.6844 51.4702 18.5286C51.4702 18.4455 51.4494 18.352 51.3975 18.2794C51.1586 17.8847 49.9125 16.5659 47.8356 15.1328C46.1844 16.0363 43.6194 17.4486 39.7875 17.459C38.8529 17.459 38.6348 17.3967 38.0013 17.3967C36.1321 17.3967 35.6648 18.2067 35.6025 19.837C35.5921 20.1486 35.5817 20.564 35.5609 21.0209C35.4986 22.4851 35.3221 24.5101 34.2109 25.8601V25.8705Z" fill="#FF7A00"/>
<path d="M53.5716 48.0813C54.2569 47.6036 54.6204 47.2401 54.6204 46.804C54.6204 46.482 54.4023 46.1601 53.8727 46.1601C53.4677 46.1601 53.1458 46.4509 53.1458 46.9182C53.1458 47.2297 53.3223 47.6451 53.5716 48.0813ZM56.6766 52.557C56.9777 52.9828 57.2269 53.3255 57.4139 53.5851C57.3619 53.6267 57.2893 53.6786 57.2269 53.7305C57.0919 53.8344 56.7908 54.0005 56.4169 54.0005C55.9081 54.0005 55.6381 53.7617 55.4927 53.554C55.4823 53.5332 55.4616 53.502 55.4408 53.4709C54.8593 53.7824 54.1635 54.0005 53.3743 54.0005C51.64 54.0005 50.6016 52.8374 50.6016 51.4874C50.6016 50.1374 51.4843 49.4728 52.3669 48.8809C51.9412 48.1851 51.6193 47.4893 51.6193 46.9078C51.6193 45.7863 52.3877 44.8828 53.8623 44.8828C55.3369 44.8828 56.0535 45.7655 56.0535 46.6067C56.0535 47.6244 55.5446 48.2163 54.2673 49.1405C54.4543 49.4105 54.6412 49.6597 54.8073 49.8986C55.1604 50.4074 55.5239 50.9163 55.8666 51.4043C56.3443 50.9059 56.6662 50.397 56.8012 50.1997L57.9539 50.8643C57.7981 51.1551 57.3827 51.8717 56.6869 52.5467M54.6827 52.3182C54.3296 51.799 53.9246 51.1863 53.5196 50.584C53.3846 50.3867 53.2393 50.179 53.1043 49.9713C52.6369 50.3243 52.2112 50.7501 52.2112 51.3628C52.2112 52.0274 52.6577 52.5882 53.6131 52.5882C53.9973 52.5882 54.3504 52.4844 54.6827 52.3182Z" fill="#FF7A00"/>
<path d="M48.8385 51.9729C48.7035 52.0456 47.8935 52.5441 46.7927 52.5441C44.7885 52.5441 43.8747 50.9449 43.8747 49.4495C43.8747 47.7672 44.9443 46.3549 46.8031 46.3549C47.3224 46.3549 47.7066 46.5002 47.8416 46.5522C48.07 46.6249 48.3089 46.7599 48.6931 46.7599C48.9943 46.7599 49.2539 46.6249 49.5135 46.2718C49.6277 46.116 49.825 45.8252 49.825 45.8252C49.7316 45.7629 48.5477 44.8906 46.6474 44.8906C43.8747 44.8906 42.0781 46.7391 42.0781 49.4391C42.0781 52.1391 43.937 53.9979 46.6474 53.9979C48.34 53.9979 49.3785 53.3333 49.5758 53.2295L48.8385 51.9625V51.9729Z" fill="#FF7A00"/>
<path d="M65.9088 51.9729C65.7738 52.0456 64.9638 52.5441 63.8631 52.5441C61.8484 52.5441 60.945 50.9449 60.945 49.4495C60.945 47.7672 62.0146 46.3549 63.8631 46.3549C64.3823 46.3549 64.7665 46.5002 64.9119 46.5522C65.1404 46.6249 65.3792 46.7599 65.7634 46.7599C66.0646 46.7599 66.3242 46.6249 66.5838 46.2718C66.6981 46.116 66.8954 45.8252 66.8954 45.8252C66.8019 45.7629 65.6181 44.8906 63.7177 44.8906C60.945 44.8906 59.1484 46.7391 59.1484 49.4391C59.1484 52.1391 61.0073 53.9979 63.7177 53.9979C65.4104 53.9979 66.4488 53.3333 66.6461 53.2295L65.9088 51.9625V51.9729Z" fill="#FF7A00"/>
</g>
<defs>
<clipPath id="clip0_2238_157291">
<rect width="101.478" height="54" fill="white"/>
</clipPath>
</defs>
</svg>
